<?xml version="1.0" encoding="UTF-8" standalone="no"?>
<!-- Created with Keyshape -->
<svg xmlns="http://www.w3.org/2000/svg" xmlns:xlink="http://www.w3.org/1999/xlink" viewBox="0 0 285 285">
    <g fill="none" fill-rule="evenodd">
        <path id="background" d="M0,0L285,0L285,285L0,285Z" fill="#587c8a"/>
        <path id="clock-background" d="M270.85,142.175L270.85,142.175C270.85,125.094,267.592,108.714,261.055,92.9332C254.519,77.1527,245.24,63.2659,233.162,51.188C221.084,39.1101,207.197,29.8313,191.417,23.2948C175.636,16.7583,159.256,13.5,142.175,13.5C125.094,13.5,108.714,16.7583,92.9332,23.2948C77.1527,29.8313,63.2659,39.1101,51.188,51.188C39.1101,63.2659,29.8313,77.1527,23.2948,92.9332C16.7583,108.714,13.5,125.094,13.5,142.175C13.5,159.256,16.7583,175.636,23.2948,191.417C29.8313,207.197,39.1101,221.084,51.188,233.162C63.2659,245.24,77.1527,254.519,92.9332,261.055C108.714,267.592,125.094,270.85,142.175,270.85C159.256,270.85,175.636,267.592,191.417,261.055C207.197,254.519,221.084,245.24,233.162,233.162C245.24,221.084,254.519,207.197,261.055,191.417C267.592,175.636,270.85,159.256,270.85,142.175Z" stroke="#d8d8d8" stroke-width="27"/>
        <path id="clock" d="M142.175,13.5C125.094,13.5,108.714,16.7583,92.9332,23.2948C77.1527,29.8313,63.2659,39.1101,51.188,51.188C39.1101,63.2659,29.8313,77.1527,23.2948,92.9332C16.7583,108.714,13.5,125.094,13.5,142.175C13.5,159.256,16.7583,175.636,23.2948,191.417C29.8313,207.197,39.1101,221.084,51.188,233.162C63.2659,245.24,77.1527,254.519,92.9332,261.055C108.714,267.592,125.094,270.85,142.175,270.85C159.256,270.85,175.636,267.592,191.417,261.055C207.197,254.519,221.084,245.24,233.162,233.162C245.24,221.084,254.519,207.197,261.055,191.417C267.592,175.636,270.85,159.256,270.85,142.175L270.85,142.175C270.85,125.094,267.592,108.714,261.055,92.9332C254.519,77.1527,245.24,63.2659,233.162,51.188C221.084,39.1101,207.197,29.8313,191.417,23.2948C175.636,16.7583,159.256,13.5,142.175,13.5Z" stroke="#ff0071" stroke-width="27" stroke-dasharray="808.25999999999999" stroke-dashoffset="0"/>
        <g id="outlined-text" fill="#fff" transform="translate(86.519,61.1708)">
            <path id="twelve" d="M17.8689,67.2906L17.8689,61.7503C23.088,61.2418,26.728,60.392,28.7889,59.2009C30.8498,58.0099,32.3888,55.1929,33.4059,50.7499L39.1068,50.7499L39.1068,108L31.3985,108L31.3985,67.2906ZM59.7024,70.9039C59.7827,65.8988,60.706,61.8172,62.4725,58.659C65.604,53.0918,71.1309,50.3083,79.0534,50.3083C85.6376,50.3083,90.4485,52.0882,93.4863,55.6479C96.5242,59.2077,98.043,63.1688,98.043,67.5315C98.043,72.1351,96.4238,76.0695,93.1852,79.3348C91.3117,81.2351,87.9527,83.5369,83.1082,86.2402L77.6081,89.2914C74.9851,90.7367,72.9242,92.115,71.4254,93.4265C68.7489,95.7551,67.0627,98.3379,66.3668,101.175L97.762,101.175L97.762,108L58.2972,108C58.5649,103.048,59.5886,98.7394,61.3685,95.0726C63.1484,91.4058,66.6211,88.0736,71.7867,85.0759L79.495,80.6195C82.9477,78.6122,85.3699,76.8992,86.7617,75.4807C88.9564,73.2592,90.0537,70.7165,90.0537,67.8527C90.0537,64.5071,89.0501,61.8507,87.0427,59.8835C85.0353,57.9162,82.3588,56.9326,79.0132,56.9326C74.0617,56.9326,70.6358,58.8061,68.7355,62.5532C67.7184,64.5606,67.1564,67.3441,67.0493,70.9039Z" fill-rule="nonzero" opacity="1"/>
            <path id="eleven" d="M17.8689,67.2906L17.8689,61.7503C23.088,61.2418,26.728,60.392,28.7889,59.2009C30.8498,58.0099,32.3888,55.1929,33.4059,50.7499L39.1068,50.7499L39.1068,108L31.3985,108L31.3985,67.2906ZM57.5344,67.2906L57.5344,61.7503C62.7536,61.2418,66.3936,60.392,68.4545,59.2009C70.5154,58.0099,72.0544,55.1929,73.0714,50.7499L78.7723,50.7499L78.7723,108L71.0641,108L71.0641,67.2906Z" opacity="0"/>
            <path id="ten" d="M18.1411,67.2906L18.1411,61.7503C23.3603,61.2418,27.0003,60.392,29.0612,59.2009C31.1221,58.0099,32.661,55.1929,33.6781,50.7499L39.379,50.7499L39.379,108L31.6707,108L31.6707,67.2906ZM78.2416,50.5091C85.6823,50.5091,91.062,53.5736,94.3808,59.7028C96.9503,64.4402,98.235,70.9306,98.235,79.1742C98.235,86.9896,97.0707,93.4533,94.7422,98.5654C91.3698,105.899,85.8563,109.566,78.2015,109.566C71.2961,109.566,66.1573,106.568,62.7849,100.573C59.9746,95.5677,58.5694,88.8498,58.5694,80.4188C58.5694,73.8881,59.4125,68.281,61.0987,63.5971C64.257,54.8717,69.9712,50.5091,78.2416,50.5091ZM78.1613,102.982C81.9084,102.982,84.8927,101.322,87.1142,98.0033C89.3357,94.6845,90.4464,88.5018,90.4464,79.4553C90.4464,72.9246,89.6435,67.5516,88.0376,63.3361C86.4317,59.1206,83.3136,57.0129,78.6832,57.0129C74.4276,57.0129,71.3162,59.0136,69.349,63.0149C67.3818,67.0163,66.3982,72.9112,66.3982,80.6998C66.3982,86.5614,67.0271,91.2719,68.2851,94.8317C70.2122,100.265,73.5042,102.982,78.1613,102.982Z" opacity="0"/>
            <path id="nine" d="M40.8444,56.3706C44.0294,52.4093,48.7266,50.4288,54.9361,50.4288C63.3135,50.4288,69.0947,54.2026,72.2797,61.7503C74.0462,65.8989,74.9295,71.0912,74.9295,77.3275C74.9295,84.3667,73.8723,90.6028,71.7578,96.0361C68.2516,105.083,62.3099,109.606,53.9324,109.606C48.3118,109.606,44.0428,108.134,41.1254,105.19C38.208,102.246,36.7494,98.552,36.7494,94.109L44.0562,94.109C44.2703,98.097,45.8093,100.854,48.6731,102.379C50.1452,103.182,51.8046,103.584,53.6514,103.584C57.1041,103.584,60.0482,102.145,62.4838,99.268C64.9194,96.3907,66.6457,90.5493,67.6628,81.7437C66.0569,84.2863,64.0696,86.0729,61.7009,87.1033C59.3322,88.1338,56.7829,88.649,54.0529,88.649C48.5125,88.649,44.1298,86.9227,40.9046,83.47C37.6794,80.0173,36.0669,75.5744,36.0669,70.1411C36.0669,64.9219,37.6594,60.3318,40.8444,56.3706ZM55.0164,82.3057C57.8802,82.3057,60.4965,81.3623,62.8652,79.4753C65.2339,77.5884,66.4182,74.2897,66.4182,69.579C66.4182,65.3502,65.3543,62.1986,63.2265,60.1243C61.0987,58.05,58.3888,57.0129,55.0967,57.0129C51.5637,57.0129,48.7601,58.1973,46.6858,60.566C44.6115,62.9347,43.5744,66.0996,43.5744,70.0608C43.5744,73.8079,44.4844,76.7855,46.3044,78.9936C48.1244,81.2017,51.0284,82.3057,55.0164,82.3057Z" opacity="0"/>
            <path id="eight" d="M55.4982,74.5974C58.6832,74.5974,61.1723,73.7075,62.9656,71.9276C64.7588,70.1478,65.6554,68.0267,65.6554,65.5643C65.6554,63.4231,64.799,61.4559,63.086,59.6626C61.373,57.8694,58.7635,56.9728,55.2573,56.9728C51.7778,56.9728,49.262,57.8694,47.7096,59.6626C46.1572,61.4559,45.381,63.5569,45.381,65.9658C45.381,68.669,46.3847,70.7834,48.3921,72.309C50.3995,73.8346,52.7681,74.5974,55.4982,74.5974ZM55.9398,103.062C59.2854,103.062,62.0622,102.159,64.2703,100.352C66.4785,98.5453,67.5825,95.8488,67.5825,92.2623C67.5825,88.5419,66.445,85.7183,64.17,83.7912C61.895,81.8641,58.9776,80.9006,55.4179,80.9006C51.9652,80.9006,49.1482,81.8842,46.9669,83.8514C44.7855,85.8186,43.6949,88.5419,43.6949,92.0214C43.6949,95.0191,44.6918,97.6085,46.6858,99.7899C48.6798,101.971,51.7644,103.062,55.9398,103.062ZM45.6621,77.3676C43.6547,76.5111,42.089,75.5075,40.9648,74.3566C38.8504,72.2154,37.7932,69.4318,37.7932,66.0059C37.7932,61.7235,39.3455,58.0434,42.4503,54.9654C45.555,51.8874,49.9578,50.3485,55.6587,50.3485C61.1723,50.3485,65.4948,51.8004,68.6263,54.7044C71.7578,57.6085,73.3236,61.0009,73.3236,64.8818C73.3236,68.4683,72.4136,71.3723,70.5935,73.5938C69.5765,74.8517,67.9974,76.0829,65.8562,77.2873C68.2382,78.3847,70.1118,79.6426,71.4768,81.0612C74.0195,83.7377,75.2908,87.2171,75.2908,91.4995C75.2908,96.558,73.5912,100.847,70.1921,104.367C66.7929,107.886,61.9887,109.646,55.7792,109.646C50.1853,109.646,45.4547,108.127,41.5871,105.089C37.7196,102.051,35.7858,97.642,35.7858,91.8608C35.7858,88.4616,36.6155,85.5242,38.275,83.0484C39.9344,80.5727,42.3967,78.6791,45.6621,77.3676Z" opacity="0"/>
            <path id="seven" d="M76.1339,51.4726L76.1339,57.7757C74.2871,59.569,71.8314,62.687,68.7668,67.13C65.7023,71.573,62.9923,76.3639,60.637,81.5028C58.3085,86.5078,56.542,91.0712,55.3376,95.193C54.5614,97.8427,53.5577,102.112,52.3265,108L44.3372,108C46.1572,97.0263,50.1719,86.1064,56.3814,75.2398C60.0482,68.8697,63.9023,63.3696,67.9438,58.7393L36.1472,58.7393L36.1472,51.4726Z" opacity="0"/>
            <path id="six" d="M57.1843,50.2682C63.6079,50.2682,68.0843,51.9343,70.6136,55.2665C73.1429,58.5988,74.4075,62.0313,74.4075,65.5643L67.2613,65.5643C66.8331,63.2893,66.1506,61.5094,65.2138,60.2247C63.4741,57.8159,60.8378,56.6114,57.3048,56.6114C53.2633,56.6114,50.0515,58.4783,47.6694,62.212C45.2873,65.9457,43.9625,71.2919,43.6949,78.2508C45.3543,75.8152,47.4419,73.9952,49.9578,72.7908C52.2596,71.7202,54.829,71.1849,57.6661,71.1849C62.4838,71.1849,66.6859,72.7239,70.2724,75.8019C73.8589,78.8798,75.6521,83.47,75.6521,89.5724C75.6521,94.7916,73.9526,99.4151,70.5534,103.443C67.1542,107.471,62.3099,109.485,56.0201,109.485C50.6403,109.485,45.9966,107.445,42.089,103.363C38.1813,99.2813,36.2275,92.4095,36.2275,82.7473C36.2275,75.6011,37.0973,69.5389,38.837,64.5606C42.1827,55.0323,48.2984,50.2682,57.1843,50.2682ZM56.6624,103.062C60.4631,103.062,63.3068,101.784,65.1937,99.2278C67.0807,96.6718,68.0241,93.654,68.0241,90.1746C68.0241,87.2304,67.181,84.4269,65.4948,81.7637C63.8086,79.1006,60.7441,77.7691,56.3011,77.7691C53.1964,77.7691,50.4731,78.7995,48.1311,80.8604C45.7892,82.9213,44.6182,86.026,44.6182,90.1746C44.6182,93.8146,45.6821,96.8725,47.8099,99.3483C49.9378,101.824,52.8886,103.062,56.6624,103.062Z" opacity="0"/>
            <path id="five" d="M43.2934,93.3462C43.7751,97.468,45.6888,100.318,49.0344,101.898C50.7474,102.701,52.728,103.102,54.9762,103.102C59.2586,103.102,62.4303,101.737,64.4912,99.007C66.5521,96.277,67.5825,93.2526,67.5825,89.9337C67.5825,85.919,66.358,82.8143,63.909,80.6195C61.46,78.4248,58.5226,77.3275,55.0967,77.3275C52.6075,77.3275,50.4731,77.8092,48.6932,78.7728C46.9133,79.7363,45.3944,81.0745,44.1365,82.7875L37.8735,82.4262L42.2495,51.4726L72.1191,51.4726L72.1191,58.4582L47.6694,58.4582L45.2204,74.4369C46.5587,73.4198,47.83,72.657,49.0344,72.1485C51.1756,71.2652,53.6514,70.8236,56.4617,70.8236C61.7344,70.8236,66.2041,72.5231,69.8709,75.9223C73.5377,79.3215,75.3711,83.6306,75.3711,88.8497C75.3711,94.283,73.6916,99.0739,70.3326,103.222C66.9736,107.371,61.614,109.445,54.2536,109.445C49.5697,109.445,45.4279,108.127,41.828,105.491C38.2281,102.854,36.2141,98.8063,35.7858,93.3462Z" opacity="0"/>
            <path id="four" d="M60.3158,87.6453L60.3158,61.5897L41.8882,87.6453ZM60.4363,108L60.4363,93.9484L35.2238,93.9484L35.2238,86.8825L61.5604,50.3485L67.6628,50.3485L67.6628,87.6453L76.1339,87.6453L76.1339,93.9484L67.6628,93.9484L67.6628,108Z" opacity="0"/>
            <path id="three" d="M54.4945,109.566C47.6962,109.566,42.7648,107.699,39.7002,103.965C36.6356,100.231,35.1033,95.6882,35.1033,90.3352L42.651,90.3352C42.9722,94.0555,43.6681,96.7587,44.7387,98.4449C46.6122,101.469,49.998,102.982,54.8959,102.982C58.6966,102.982,61.7477,101.965,64.0495,99.9304C66.3513,97.8963,67.5022,95.2733,67.5022,92.0615C67.5022,88.1003,66.2911,85.3302,63.8689,83.751C61.4466,82.1719,58.081,81.3823,53.7718,81.3823C53.2901,81.3823,52.8016,81.389,52.3064,81.4024C51.8113,81.4158,51.3095,81.4359,50.8009,81.4626L50.8009,75.0792C51.5503,75.1595,52.1793,75.213,52.6878,75.2398C53.1964,75.2666,53.7451,75.2799,54.3339,75.2799C57.0372,75.2799,59.2586,74.8517,60.9983,73.9952C64.0496,72.4964,65.5751,69.8199,65.5751,65.9658C65.5751,63.1019,64.5581,60.8938,62.5239,59.3415C60.4898,57.7891,58.1211,57.0129,55.4179,57.0129C50.6002,57.0129,47.268,58.6188,45.4212,61.8306C44.4041,63.5971,43.8287,66.113,43.6949,69.3783L36.5486,69.3783C36.5486,65.0959,37.4051,61.4559,39.1181,58.4582C42.0622,53.1052,47.2412,50.4288,54.6551,50.4288C60.5166,50.4288,65.0532,51.7335,68.265,54.3431C71.4768,56.9527,73.0827,60.7332,73.0827,65.6847C73.0827,69.2177,72.1325,72.0815,70.2322,74.2763C69.0546,75.6413,67.529,76.7119,65.6554,77.488C68.6799,78.3178,71.0418,79.9169,72.7414,82.2856C74.441,84.6544,75.2908,87.5516,75.2908,90.9775C75.2908,96.4644,73.4842,100.934,69.8709,104.387C66.2576,107.839,61.1322,109.566,54.4945,109.566Z" opacity="0"/>
            <path id="two" d="M35.7055,108C35.9732,103.048,36.9969,98.7394,38.7768,95.0726C40.5567,91.4058,44.0294,88.0736,49.195,85.0759L56.9033,80.6195C60.356,78.6122,62.7782,76.8992,64.17,75.4807C66.3647,73.2592,67.4621,70.7165,67.4621,67.8527C67.4621,64.5071,66.4584,61.8507,64.451,59.8835C62.4436,57.9162,59.7672,56.9326,56.4215,56.9326C51.47,56.9326,48.0442,58.8061,46.1438,62.5532C45.1268,64.5606,44.5647,67.3441,44.4576,70.9039L37.1107,70.9039C37.191,65.8988,38.1144,61.8172,39.8809,58.659C43.0124,53.0918,48.5393,50.3083,56.4617,50.3083C63.0459,50.3083,67.8568,52.0882,70.8947,55.6479C73.9325,59.2077,75.4514,63.1688,75.4514,67.5315C75.4514,72.1351,73.8321,76.0695,70.5935,79.3348C68.72,81.2351,65.361,83.5369,60.5166,86.2402L55.0164,89.2914C52.3934,90.7367,50.3325,92.115,48.8337,93.4265C46.1572,95.7551,44.471,98.3379,43.7751,101.175L75.1703,101.175L75.1703,108Z" opacity="0"/>
            <path id="one" d="M41.005,67.2906L41.005,61.7503C46.2242,61.2418,49.8641,60.392,51.925,59.2009C53.986,58.0099,55.5249,55.1929,56.542,50.7499L62.2429,50.7499L62.2429,108L54.5346,108L54.5346,67.2906Z" opacity="0"/>
            <path id="delivery-in" d="M8.4589,21.0094C9.24735,21.0094,9.89528,20.9274,10.4027,20.7635C11.3082,20.459,12.0498,19.8735,12.6275,19.007C13.0881,18.3122,13.4199,17.4223,13.6228,16.3372C13.7399,15.6893,13.7985,15.0882,13.7985,14.5339C13.7985,12.4028,13.375,10.7478,12.528,9.56905C11.681,8.39028,10.3168,7.8009,8.43548,7.8009L4.30198,7.8009L4.30198,21.0094ZM1.96005,5.79855L8.92728,5.79855C11.2926,5.79855,13.1271,6.63773,14.4308,8.31612C15.594,9.83058,16.1755,11.7705,16.1755,14.1358C16.1755,15.9625,15.8321,17.6136,15.1451,19.089C13.9351,21.6963,11.8547,23,8.90386,23L1.96005,23ZM24.1147,10.178C25.0046,10.178,25.8672,10.3868,26.7025,10.8044C27.5378,11.2221,28.174,11.7627,28.6112,12.4262C29.0327,13.0585,29.3137,13.7962,29.4543,14.6393C29.5792,15.217,29.6416,16.1381,29.6416,17.4028L20.4496,17.4028C20.4886,18.6752,20.7891,19.6959,21.3512,20.4649C21.9133,21.2338,22.7837,21.6183,23.9624,21.6183C25.0632,21.6183,25.9414,21.2553,26.5971,20.5293C26.9718,20.1077,27.2372,19.6198,27.3934,19.0656L29.466,19.0656C29.4113,19.5261,29.2298,20.0394,28.9215,20.6054C28.6131,21.1713,28.2677,21.6339,27.8852,21.993C27.245,22.6175,26.4527,23.039,25.5081,23.2576C25.0007,23.3825,24.4269,23.445,23.7868,23.445C22.2255,23.445,20.9023,22.8771,19.8172,21.7412C18.7321,20.6054,18.1896,19.0148,18.1896,16.9695C18.1896,14.9555,18.736,13.32,19.8289,12.0632C20.9219,10.8064,22.3504,10.178,24.1147,10.178ZM27.4753,15.7283C27.3895,14.815,27.1904,14.0851,26.8781,13.5386C26.3005,12.5238,25.3364,12.0164,23.9859,12.0164C23.0179,12.0164,22.206,12.3657,21.5503,13.0644C20.8945,13.7631,20.5471,14.651,20.5081,15.7283ZM32.288,5.79855L34.3957,5.79855L34.3957,23L32.288,23ZM37.5573,10.5175L39.7002,10.5175L39.7002,23L37.5573,23ZM37.5573,5.79855L39.7002,5.79855L39.7002,8.18732L37.5573,8.18732ZM43.9157,10.459L47.2646,20.6698L50.7658,10.459L53.0726,10.459L48.3419,23L46.0937,23L41.4683,10.459ZM60.0984,10.178C60.9883,10.178,61.8509,10.3868,62.6862,10.8044C63.5215,11.2221,64.1577,11.7627,64.5949,12.4262C65.0164,13.0585,65.2974,13.7962,65.438,14.6393C65.5629,15.217,65.6253,16.1381,65.6253,17.4028L56.4333,17.4028C56.4723,18.6752,56.7728,19.6959,57.3349,20.4649C57.897,21.2338,58.7674,21.6183,59.9461,21.6183C61.0469,21.6183,61.9251,21.2553,62.5808,20.5293C62.9555,20.1077,63.2209,19.6198,63.3771,19.0656L65.4497,19.0656C65.395,19.5261,65.2135,20.0394,64.9052,20.6054C64.5968,21.1713,64.2514,21.6339,63.8689,21.993C63.2287,22.6175,62.4364,23.039,61.4918,23.2576C60.9844,23.3825,60.4106,23.445,59.7705,23.445C58.2092,23.445,56.886,22.8771,55.8009,21.7412C54.7158,20.6054,54.1733,19.0148,54.1733,16.9695C54.1733,14.9555,54.7197,13.32,55.8126,12.0632C56.9056,10.8064,58.3341,10.178,60.0984,10.178ZM63.459,15.7283C63.3732,14.815,63.1741,14.0851,62.8618,13.5386C62.2842,12.5238,61.3201,12.0164,59.9696,12.0164C59.0016,12.0164,58.1897,12.3657,57.534,13.0644C56.8782,13.7631,56.5308,14.651,56.4918,15.7283ZM68.2717,10.459L70.274,10.459L70.274,12.6253C70.438,12.2037,70.84,11.6905,71.4801,11.0854C72.1203,10.4804,72.858,10.178,73.6933,10.178C73.7323,10.178,73.7986,10.1819,73.8923,10.1897C73.986,10.1975,74.146,10.2131,74.3724,10.2365L74.3724,12.4613C74.2475,12.4379,74.1324,12.4223,74.027,12.4145C73.9216,12.4067,73.8064,12.4028,73.6815,12.4028C72.6199,12.4028,71.8041,12.7443,71.2342,13.4274C70.6644,14.1104,70.3794,14.8969,70.3794,15.7869L70.3794,23L68.2717,23ZM84.0329,10.459L86.3631,10.459C86.0664,11.2631,85.4068,13.0975,84.3841,15.9625C83.6191,18.1171,82.979,19.8735,82.4638,21.2318C81.246,24.4325,80.3873,26.3841,79.8876,27.0867C79.388,27.7892,78.5293,28.1405,77.3115,28.1405C77.0149,28.1405,76.7865,28.1288,76.6265,28.1054C76.4665,28.082,76.2694,28.039,76.0352,27.9766L76.0352,26.0562C76.4021,26.1577,76.6675,26.2201,76.8314,26.2436C76.9954,26.267,77.1398,26.2787,77.2647,26.2787C77.655,26.2787,77.9419,26.2143,78.1253,26.0855C78.3088,25.9567,78.463,25.7986,78.5879,25.6112C78.6269,25.5488,78.7674,25.2287,79.0094,24.6511C79.2514,24.0734,79.4271,23.644,79.5364,23.363L74.8993,10.459L77.2881,10.459L80.6488,20.6698ZM94.8526,10.5175L96.9954,10.5175L96.9954,23L94.8526,23ZM94.8526,5.79855L96.9954,5.79855L96.9954,8.18732L94.8526,8.18732ZM100.18,10.459L102.183,10.459L102.183,12.2388C102.776,11.505,103.404,10.9781,104.068,10.658C104.732,10.338,105.469,10.178,106.281,10.178C108.061,10.178,109.263,10.7986,109.888,12.0398C110.231,12.7189,110.403,13.6908,110.403,14.9555L110.403,23L108.26,23L108.26,15.096C108.26,14.331,108.147,13.7143,107.921,13.2459C107.546,12.4652,106.867,12.0749,105.883,12.0749C105.383,12.0749,104.974,12.1257,104.654,12.2271C104.076,12.3989,103.568,12.7424,103.131,13.2576C102.78,13.6713,102.552,14.0987,102.446,14.5398C102.341,14.9809,102.288,15.6112,102.288,16.4309L102.288,23L100.18,23Z"/>
            <path id="minutes" d="M7.7973,134.799L11.1345,134.799L16.076,149.342L20.9823,134.799L24.2845,134.799L24.2845,152L22.0713,152L22.0713,141.848C22.0713,141.496,22.0791,140.915,22.0948,140.103C22.1104,139.291,22.1182,138.421,22.1182,137.492L17.2118,152L14.905,152L9.96358,137.492L9.96358,138.019C9.96358,138.44,9.97334,139.082,9.99286,139.945C10.0124,140.808,10.0221,141.442,10.0221,141.848L10.0221,152L7.7973,152ZM27.5515,139.518L29.6943,139.518L29.6943,152L27.5515,152ZM27.5515,134.799L29.6943,134.799L29.6943,137.187L27.5515,137.187ZM32.8793,139.459L34.8817,139.459L34.8817,141.239C35.475,140.505,36.1034,139.978,36.7669,139.658C37.4305,139.338,38.1682,139.178,38.9801,139.178C40.7599,139.178,41.9621,139.799,42.5866,141.04C42.9301,141.719,43.1018,142.691,43.1018,143.955L43.1018,152L40.959,152L40.959,144.096C40.959,143.331,40.8458,142.714,40.6194,142.246C40.2447,141.465,39.5655,141.075,38.5819,141.075C38.0823,141.075,37.6725,141.126,37.3524,141.227C36.7747,141.399,36.2673,141.742,35.8302,142.258C35.4789,142.671,35.2505,143.099,35.1451,143.54C35.0398,143.981,34.9871,144.611,34.9871,145.431L34.9871,152L32.8793,152ZM48.3243,139.459L48.3243,147.785C48.3243,148.425,48.4258,148.948,48.6288,149.354C49.0035,150.103,49.7022,150.478,50.7248,150.478C52.1924,150.478,53.1916,149.822,53.7225,148.511C54.0113,147.808,54.1557,146.844,54.1557,145.618L54.1557,139.459L56.2635,139.459L56.2635,152L54.2728,152L54.2962,150.15C54.023,150.626,53.6834,151.028,53.2775,151.356C52.4734,152.012,51.4977,152.34,50.3501,152.34C48.5624,152.34,47.3446,151.742,46.6967,150.548C46.3454,149.908,46.1698,149.053,46.1698,147.984L46.1698,139.459ZM59.9754,135.958L62.1066,135.958L62.1066,139.459L64.1089,139.459L64.1089,141.18L62.1066,141.18L62.1066,149.365C62.1066,149.802,62.2549,150.095,62.5515,150.244C62.7155,150.329,62.9887,150.372,63.3712,150.372C63.4727,150.372,63.582,150.37,63.6991,150.367C63.8162,150.363,63.9528,150.353,64.1089,150.337L64.1089,152C63.8669,152.07,63.6152,152.121,63.3536,152.152C63.0921,152.183,62.8092,152.199,62.5047,152.199C61.5211,152.199,60.8536,151.947,60.5024,151.444C60.1511,150.94,59.9754,150.286,59.9754,149.482L59.9754,141.18L58.2775,141.18L58.2775,139.459L59.9754,139.459ZM71.4391,139.178C72.3291,139.178,73.1917,139.387,74.027,139.804C74.8623,140.222,75.4985,140.763,75.9356,141.426C76.3572,142.059,76.6382,142.796,76.7787,143.639C76.9036,144.217,76.9661,145.138,76.9661,146.403L67.774,146.403C67.8131,147.675,68.1136,148.696,68.6757,149.465C69.2377,150.234,70.1081,150.618,71.2869,150.618C72.3876,150.618,73.2658,150.255,73.9216,149.529C74.2963,149.108,74.5617,148.62,74.7178,148.066L76.7905,148.066C76.7358,148.526,76.5543,149.039,76.246,149.605C75.9376,150.171,75.5922,150.634,75.2097,150.993C74.5695,151.617,73.7772,152.039,72.8326,152.258C72.3252,152.383,71.7514,152.445,71.1113,152.445C69.55,152.445,68.2268,151.877,67.1417,150.741C66.0566,149.605,65.5141,148.015,65.5141,145.97C65.5141,143.955,66.0605,142.32,67.1534,141.063C68.2463,139.806,69.6749,139.178,71.4391,139.178ZM74.7998,144.728C74.7139,143.815,74.5149,143.085,74.2026,142.539C73.6249,141.524,72.6609,141.016,71.3103,141.016C70.3423,141.016,69.5305,141.366,68.8747,142.064C68.219,142.763,67.8716,143.651,67.8326,144.728ZM85.1043,134.518C83.8787,136.898,83.0824,138.651,82.7155,139.775C82.1613,141.485,81.8841,143.46,81.8841,145.7C81.8841,147.964,82.2003,150.033,82.8326,151.906C83.2229,153.062,83.9919,154.724,85.1394,156.895L83.7226,156.895C82.5828,155.115,81.8763,153.979,81.6031,153.487C81.3299,152.995,81.0332,152.328,80.7132,151.485C80.276,150.329,79.9716,149.096,79.7998,147.785C79.714,147.105,79.671,146.457,79.671,145.841C79.671,143.53,80.034,141.473,80.76,139.67C81.2206,138.522,82.1808,136.805,83.6406,134.518ZM88.7928,148.066C88.8553,148.768,89.0309,149.307,89.3198,149.681C89.8506,150.361,90.7717,150.7,92.0832,150.7C92.8639,150.7,93.5508,150.53,94.1441,150.191C94.7374,149.851,95.0341,149.326,95.0341,148.616C95.0341,148.077,94.796,147.667,94.3198,147.386C94.0153,147.215,93.4142,147.016,92.5165,146.789L90.842,146.368C89.7725,146.102,88.9841,145.806,88.4767,145.478C87.5711,144.908,87.1183,144.119,87.1183,143.112C87.1183,141.926,87.5457,140.966,88.4006,140.232C89.2554,139.498,90.4048,139.131,91.849,139.131C93.7382,139.131,95.1004,139.685,95.9357,140.794C96.4587,141.496,96.7124,142.254,96.6968,143.066L94.7062,143.066C94.6672,142.589,94.4993,142.156,94.2027,141.766C93.7187,141.212,92.8795,140.934,91.6851,140.934C90.8888,140.934,90.2858,141.087,89.876,141.391C89.4661,141.696,89.2612,142.098,89.2612,142.597C89.2612,143.144,89.5305,143.581,90.0692,143.909C90.3814,144.104,90.842,144.276,91.4509,144.424L92.8444,144.763C94.3588,145.13,95.3736,145.486,95.8889,145.829C96.7085,146.368,97.1184,147.215,97.1184,148.37C97.1184,149.486,96.6949,150.45,95.8479,151.262C95.0009,152.074,93.7109,152.48,91.9778,152.48C90.1121,152.48,88.7909,152.057,88.0141,151.21C87.2374,150.363,86.8217,149.315,86.7671,148.066ZM98.8163,156.895C100.057,154.475,100.858,152.71,101.217,151.602C101.763,149.923,102.036,147.956,102.036,145.7C102.036,143.444,101.72,141.379,101.088,139.506C100.698,138.35,99.9287,136.688,98.7811,134.518L100.198,134.518C101.4,136.438,102.128,137.623,102.382,138.071C102.636,138.52,102.911,139.139,103.207,139.927C103.582,140.903,103.849,141.867,104.009,142.82C104.17,143.772,104.25,144.689,104.25,145.571C104.25,147.882,103.883,149.943,103.149,151.754C102.688,152.917,101.732,154.631,100.28,156.895Z"/>
        </g>
    </g>
    <script><![CDATA[window.ks=function(){function z(a){return"undefined"!==typeof a}function v(a,b){return a&&0==a.indexOf(b)}function N(a){if(!isFinite(a))throw"non-finite value";}function O(a){if(14>=a)return 16;(a=X[a])||(a=0);return a}function D(a){return 0<=a?Math.pow(a,1/3):-Math.pow(-a,1/3)}function Y(a,b,c,d){if(0==a)return 0==b?b=-d/c:(a=Math.sqrt(c*c-4*b*d),d=(-c+a)/(2*b),0<=d&&1>=d?b=d:(d=(-c-a)/(2*b),b=0<=d&&1>=d?d:0)),b;var e=c/a-b*b/(a*a)/3;c=b*b*b/(a*a*a)/13.5-b*c/(a*a)/3+d/a;var l=c*c/4+e*e*e/27;b=-b/
(3*a);if(0>=l){if(0==e&&0==c)return-D(d/a);a=Math.sqrt(c*c/4-l);d=Math.acos(-c/2/a);c=Math.cos(d/3);d=Math.sqrt(3)*Math.sin(d/3);a=D(a);e=2*a*c+b;if(0<=e&&1>=e)return e;e=-a*(c+d)+b;if(0<=e&&1>=e)return e;e=a*(d-c)+b;if(0<=e&&1>=e)return e}else{a=D(-c/2+Math.sqrt(l));c=D(-c/2-Math.sqrt(l));d=a+c+b;if(0<=d&&1>=d)return d;d=-(a+c)/2+b;if(0<=d&&1>=d)return d}return 0}function Z(a,b){if(48==a&&"number"===typeof b)return"#"+("000000"+b.toString(16)).substr(-6);if(64==a)return b=b.map(function(a){return a+
"px"}),b.join(",");if(96==a){a="";for(var c=b.length,d=0;d<c;d+=2)a+=b[d],a+=b[d+1].join(",");return a}if(80==a){if(0==b[0])return"none";a="";c=b.length;for(d=0;d<c;)a+=R[b[d]],1==b[d]?a+="("+b[d+1]+") ":5==b[d]?(a+="("+b[d+1]+"px "+b[d+2]+"px "+b[d+3]+"px rgba("+(b[d+4]>>>24)+","+(b[d+4]>>16&255)+","+(b[d+4]>>8&255)+","+(b[d+4]&255)/255+")) ",d+=3):a=2==b[d]?a+("("+b[d+1]+"px) "):7==b[d]?a+("("+b[d+1]+"deg) "):a+("("+(0>b[d+1]?0:b[d+1])+") "),d+=2;return a}return 32==a?b+"px":b}function w(a){return 0>=
a?0:255<=a?255:a}function aa(a,b,c,d){if(16==a||32==a)return(c-b)*d+b;if(0==a)return.5>d?b:c;if(48==a){if("number"===typeof b&&"number"===typeof c){var e=1-d;return w(e*(b>>16)+d*(c>>16))<<16|w(e*(b>>8&255)+d*(c>>8&255))<<8|w(e*(b&255)+d*(c&255))}return.5>d?b:c}if(64==a){0==b.length&&(b=[0]);0==c.length&&(c=[0]);var l=b.length;b.length!=c.length&&(l=b.length*c.length);var h=[];for(a=0;a<l;++a){var f=b[a%b.length];var g=(c[a%c.length]-f)*d+f;0>g&&(g=0);h.push(g)}return h}if(96==a){if(b.length!=c.length)return.5>
d?b:c;l=b.length;h=[];for(a=0;a<l;a+=2){if(b[a]!==c[a])return.5>d?b:c;h[a]=b[a];h[a+1]=[];for(f=0;f<b[a+1].length;++f)h[a+1].push((c[a+1][f]-b[a+1][f])*d+b[a+1][f])}return h}if(80==a){l=b.length;if(l!=c.length)return.5>d?b:c;h=[];for(a=0;a<l;){if(b[a]!=c[a]||1==b[a])return.5>d?b:c;h[a]=b[a];h[a+1]=(c[a+1]-b[a+1])*d+b[a+1];if(5==b[a]){h[a+2]=(c[a+2]-b[a+2])*d+b[a+2];h[a+3]=(c[a+3]-b[a+3])*d+b[a+3];e=1-d;var k=b[a+4],q=c[a+4];g=e*(k>>>24)+d*(q>>>24);var n=e*(k>>16&255)+d*(q>>16&255);f=e*(k>>8&255)+
d*(q>>8&255);h[a+4]=(w(n)<<16|w(f)<<8|w(e*(k&255)+d*(q&255)))+16777216*(w(g)|0);a+=3}a+=2}return h}return 0}function S(a,b){a:{var c=a+b[2];var d=b[4].length;for(var e=0;e<d;++e)if(c<b[4][e]){c=e;break a}c=d-1}d=b[2];e=b[4][c-1]-d;a=(a-e)/(b[4][c]-d-e);if(b[6]&&b[6].length>c-1)if(d=b[6][c-1],1==d[0])if(0>=a)a=0;else if(1<=a)a=1;else{e=d[1];var l=d[3];a=Y(3*e-3*l+1,-6*e+3*l,3*e,-a);a=3*a*(1-a)*(1-a)*d[2]+3*a*a*(1-a)*d[4]+a*a*a}else 2==d[0]?(d=d[1],a=Math.ceil(a*d)/d):3==d[0]&&(d=d[1],a=Math.floor(a*
d)/d);return aa(b[1]&240,b[5][c-1],b[5][c],a)}function P(){A=(new Date).getTime()}function J(a){for(var b=!1,c=0;c<x.length;++c)x[c].F(a)&&(b=!0);a&&x.forEach(function(a){a.l&&(a.l=!1,a.onfinish&&(a.onfinish(),b=!0))});return b}function T(){P();J(!0)?(K=!0,L(T)):K=!1}function Q(){K||(K=!0,L(T))}function U(a,b){var c=[];a.split(b).forEach(function(a){c.push(parseFloat(a))});return c}function t(a){-1==a.indexOf(",")&&(a=a.replace(" ",","));return U(a,",")}function V(a){a._ks||(a._ks={H:M},++M);if(!a._ks.transform){for(var b=
a._ks.transform=[],c=0;14>=c;++c)b[c]=0;b[10]=1;b[11]=1;if(c=a.getAttribute("transform")){for(c=c.trim().split(") ");0<a._ks.w;)c.shift(),--a._ks.w;a=c.shift();v(a,"translate(")&&(a=t(a.substring(10)),b[1]=a[0],b[2]=z(a[1])?a[1]:0,a=c.shift());v(a,"rotate(")&&(a=t(a.substring(7)),b[6]=a[0],a=c.shift());v(a,"skewX(")&&(a=t(a.substring(6)),b[7]=a[0],a=c.shift());v(a,"skewY(")&&(a=t(a.substring(6)),b[8]=a[0],a=c.shift());v(a,"scale(")&&(a=t(a.substring(6)),b[10]=a[0],b[11]=z(a[1])?a[1]:0,a=c.shift());
v(a,"translate(")&&(a=t(a.substring(10)),b[13]=a[0],b[14]=z(a[1])?a[1]:0)}}}function W(a){this.C=a;this.v=[];this.o=[];this.g=0;this.i=this.a=this.b=null;this.f=this.A=this.l=this.h=!1}function G(a,b,c){b=a[b];void 0===b&&(b=a[c]);return b}function ba(a){return Array.isArray(a)?a:v(a,"cubic-bezier(")?(a=a.substring(13,a.length-1).split(","),[1,parseFloat(a[0]),parseFloat(a[1]),parseFloat(a[2]),parseFloat(a[3])]):v(a,"steps(")?(a=a.substring(6,a.length-1).split(","),[a[1]&&"start"==a[1].trim()?2:3,
parseFloat(a[0])]):[0]}function ca(a){a=a.trim();return v(a,"#")?(parseInt(a.substring(1),16)<<8)+255:v(a,"rgba(")?(a=a.substring(5,a.length-1),a=a.split(","),(parseInt(a[0],10)<<24)+(parseInt(a[1],10)<<16)+(parseInt(a[2],10)<<8)+255*parseFloat(a[3])<<0):a}var da=" translate translate    rotate skewX skewY  scale scale  translate translate".split(" "),R="none url blur brightness contrast drop-shadow grayscale hue-rotate invert opacity saturate sepia".split(" "),L=window.requestAnimationFrame||window.webkitRequestAnimationFrame||
window.mozRequestAnimationFrame||window.oRequestAnimationFrame||window.msRequestAnimationFrame||null;L||(L=function(a){window.setTimeout(a,16)});var M=0,X={d:97,fill:48,fillOpacity:16,filter:80,height:33,opacity:16,stroke:48,strokeDasharray:64,strokeDashoffset:32,strokeOpacity:16,strokeWidth:32,transform:1,width:33},K=!1,A=(new Date).getTime(),x=[];W.prototype={j:function(a){var b=!1;if(null!==this.b){var c=this.c();null!==c&&c>=this.g?(b=!0,a?this.a=c:this.a=this.i?Math.max(this.i,this.g):this.g):
null!==c&&(a&&null!==this.a&&(this.b=A-this.a/1),this.a=null)}this.i=this.c();return b},F:function(a){a&&(this.h&&(this.h=!1,null===this.b&&(null!==this.a?(this.b=A-this.a/1,this.a=null):this.b=A)),null===this.a&&null!==this.b&&this.j(!1)&&(this.l=!0));a=this.c();if(null===a)return!1;for(var b=this.v,c=this.o,d=0;d<b.length;++d){for(var e=b[d],l=!1,h=0;h<c[d].length;++h){var f=c[d][h],g=f[0];if(null!==g){var k=f[2];var q=f[4].length,n=f[4][q-1]-k;k=0==n?f[5][q-1]:a<=k?f[5][0]:a>=k+f[3]?0==f[3]%n?
f[5][q-1]:S(f[3]%n,f):S((a-k)%n,f);0==g?(e._ks.mpath=f[8],e._ks.transform[g]=k,l=!0):14>=g?(e._ks.transform[g]=k,l=!0):(k=Z(f[1]&240,k),f[1]&1?e.setAttribute(g,k):e.style[g]=k)}}if(l){V(e);l=e._ks.transform;h="";if(f=e._ks.mpath)k=l[0],0>k&&(k=0),100<k&&(k=100),k=k*f[2]/100,g=f[1].getPointAtLength(k),h="translate("+g.x+","+g.y+") ",f[0]&&(.5>k?(k=g,g=f[1].getPointAtLength(.5)):k=f[1].getPointAtLength(k-.5),h+="rotate("+180*Math.atan2(g.y-k.y,g.x-k.x)/Math.PI+") ");for(f=1;f<l.length;++f)g=l[f],g!=
(10==f||11==f?1:0)&&(h+=" "+da[f]+"(",h=2>=f?h+(1==f?g+",0":"0,"+g):13<=f?h+(13==f?g+",0":"0,"+g):10<=f?h+(10==f?g+",1":"1,"+g):h+g,h+=")");e.setAttribute("transform",h)}}return"running"==this.B()},s:function(){if(!this.A){this.A=!0;for(var a=this.v,b=this.o,c=0;c<a.length;++c)for(var d=a[c],e=!1,l=0;l<b[c].length;++l){var h=b[c][l][0];14>=h?d._ks.G||(V(d),d._ks.G=d._ks.transform.slice()):(d._ks.m||(d._ks.m={}),z(d._ks.m[h])||(e||(e=getComputedStyle(d)),d._ks.m[h]=O(h)&1?d.getAttribute(h):e[h]))}}},
play:function(a){z(a)&&this.u(a,!0);if(!this.f)return this;a=this.c();if(null===a||0>a||a>=this.g)this.a=0;if(null===this.a)return this;this.b=null;this.h=!0;this.s();Q();return this},pause:function(a){z(a)&&this.u(a,!0);if(!this.f||"paused"==this.B())return this;z(a)||P();a=this.c();null===a&&(this.a=0);null!==this.b&&null===this.a&&(this.a=a);this.b=null;this.h=!1;this.j(!1);this.s();J(!1);return this},c:function(){return null!==this.a?this.a:null===this.b?null:1*(A-this.b)},u:function(a,b){N(a);
b&&P();null!==a&&(this.s(),null!==this.a||null===this.b?(this.a=a,J(!1)):this.b=A-a/1,this.f||(this.b=null),this.i=null,this.j(!0),Q())},I:function(){return this.c()},time:function(a){return z(a)?(this.f&&this.u(a,!0),this):this.I()},startTime:function(a){if(z(a)){N(a);if(!this.f)return this;this.i=this.c();this.b=a;null!==a?this.a=null:this.a=this.i;this.h=!1;this.j(!0);J(!1);Q();return this}return this.D?this.D[0].startTime:this.b},B:function(){var a=this.c();return this.h?"running":null===a?"idle":
null===this.b?"paused":a>=this.g?"finished":"running"}};return{setmptr:function(a){for(var b in a){var c=document.getElementById(b);c._ks||(c._ks={});c._ks.w=a[b]}},animate:function(){if(0<x.length)throw"data already set";var a={};if(1==arguments.length%2){a=arguments[arguments.length-1];var b={};for(c in a)b[c]=a[c];a=b}var c=new W(a);a=arguments;for(var d=b=0;d<a.length-1;d+=2){var e=a[d];var l=e instanceof Element?e:document.getElementById(e.substring(1));if(!l)throw"invalid target: "+e;e=l;l=
a[d+1];e._ks||(e._ks={H:M},++M);for(var h=[],f=0;f<l.length;++f){var g=l[f],k=G(g,"p","property");14>=k||-1==k.indexOf("-")||(k=null);var q=O(k);q||(q=0);var n=G(g,"t","times");if(!n||2>n.length)throw"not enough times";n=n.slice();if(!isFinite(n[0])||0>n[0])throw"bad time: "+n[0];for(var y=1;y<n.length;++y)if(!isFinite(n[y])||0>n[y]||n[y]<n[y-1])throw"bad time: "+n[y];y=n[0];var w=n[n.length-1]-y,A=g.iterations||0;1>A&&(A=1);w*=A;b<w+y&&(b=w+y);var t=G(g,"v","values");if(!t||t.length!=n.length)throw"values don't match times";
t=t.slice();for(var B=k,m=t,H=O(B)&240,p=0;p<m.length;++p)if(96==H){for(var F=m[p].substring(6,m[p].length-2).match(/[A-DF-Za-df-z][-+0-9eE., ]*/ig),I=[],r=0;r<F.length;++r){I.push(F[r][0]);for(var u=1<F[r].trim().length?F[r].substring(1).split(","):[],E=0;E<u.length;++E)u[E]=parseFloat(u[E]);I.push(u)}m[p]=I}else if(48==H)v(m[p],"#")?m[p]=parseInt(m[p].substring(1),16):v(m[p],"url(")||"none"==m[p]||(console.warn("unsupported color: "+m[p]),m[p]=0);else if(80==H){F=m;I=p;r=m[p];if("none"==r)r=[0];
else{u=[];for(var C=r.indexOf("(");0<C;)if(E=R.indexOf(r.substring(0,C)),0<=E){u.push(E);var D=r.indexOf(") ");0>D&&(D=r.length-1);C=r.substring(C+1,D).split(" ");5==E?(u.push(parseFloat(C[0])),u.push(parseFloat(C[1])),u.push(parseFloat(C[2])),u.push(ca(C[3]))):1==E?u.push(C[0]):u.push(parseFloat(C[0]));r=r.substring(D+1).trim();C=r.indexOf("(")}else break;r=u}F[I]=r}else 64==H?"none"!=m[p]?/^[0-9 .]*$/.test(m[p])?m[p]=U(m[p]," "):(console.warn("unsupported value: "+m[p]),m[p]=[0]):m[p]=[0]:32==H?
(N(m[p]),m[p]=parseFloat(m[p])):0===B&&(m[p]=parseFloat(m[p]));B=G(g,"e","easing");m=n.length;for(B||(B=[]);B.length<m;)B.push([1,0,0,.58,1]);for(m=0;m<B.length;++m)B[m]=ba(B[m]);q=[k,q,y,w,n,t,B,A];n=G(g,"m","motionPath");z(n)&&0===k&&(q[8]=[],q[8][0]=g.motionRotate,g=document.createElementNS("http://www.w3.org/2000/svg","path"),n||(n="M0,0"),g.setAttribute("d",n),q[8][1]=g,q[8][2]=g.getTotalLength());h.push(q)}0<h.length&&(c.v.push(e),c.o.push(h))}c.g=b;!1===c.f&&(x.push(c),c.f=!0,!1!==c.C.autoplay&&
c.play());return c},_priv_list:function(){return x.slice()},play:function(){return x[0]?x[0].play():this},pause:function(){return x[0]?x[0].pause():this},time:function(a){return x[0]?x[0].time(a):z(a)?this:null}}}();
document.ks=ks;(function(ks){
ks.animate("#clock",[{p:'strokeDashoffset',t:[0,12000],v:[0,808.26],e:[[0],[0]],iterations:Infinity}],
"#twelve",[{p:'opacity',t:[0,983,1000,12000],v:[1,1,0,0],e:[[0],[0],[0],[0]],iterations:Infinity}],
"#eleven",[{p:'opacity',t:[0,983,1000,1983,2000,12000],v:[0,0,1,1,0,0],e:[[0],[0],[0],[0],[0],[0]],iterations:Infinity}],
"#ten",[{p:'opacity',t:[0,1983,2000,2983,3000,12000],v:[0,0,1,1,0,0],e:[[0],[0],[0],[0],[0],[0]],iterations:Infinity}],
"#nine",[{p:'opacity',t:[0,2983,3000,3983,4000,12000],v:[0,0,1,1,0,0],e:[[0],[0],[0],[0],[0],[0]],iterations:Infinity}],
"#eight",[{p:'opacity',t:[0,3983,4000,4983,5000,12000],v:[0,0,1,1,0,0],e:[[0],[0],[0],[0],[0],[0]],iterations:Infinity}],
"#seven",[{p:'opacity',t:[0,4983,5000,5983,6000,12000],v:[0,0,1,1,0,0],e:[[0],[0],[0],[0],[0],[0]],iterations:Infinity}],
"#six",[{p:'opacity',t:[0,5983,6000,6983,7000,12000],v:[0,0,1,1,0,0],e:[[0],[0],[0],[0],[0],[0]],iterations:Infinity}],
"#five",[{p:'opacity',t:[0,6983,7000,7983,8000,12000],v:[0,0,1,1,0,0],e:[[0],[0],[0],[0],[0],[0]],iterations:Infinity}],
"#four",[{p:'opacity',t:[0,7983,8000,8983,9000,12000],v:[0,0,1,1,0,0],e:[[0],[0],[0],[0],[0],[0]],iterations:Infinity}],
"#three",[{p:'opacity',t:[0,8983,9000,9983,10000,12000],v:[0,0,1,1,0,0],e:[[0],[0],[0],[0],[0],[0]],iterations:Infinity}],
"#two",[{p:'opacity',t:[0,9983,10000,10983,11000,12000],v:[0,0,1,1,0,0],e:[[0],[0],[0],[0],[0],[0]],iterations:Infinity}],
"#one",[{p:'opacity',t:[0,10983,11000,11983,12000],v:[0,0,1,1,0],e:[[0],[0],[0],[0],[0]],iterations:Infinity}],
{autoplay:document.location.search.substr(1).split('&').indexOf('autoplay=false')<0})
})(ks);
]]></script>
</svg>
